<?xml version="1.0" encoding="UTF-8"?>
<svg xmlns="http://www.w3.org/2000/svg" id="Layer_1" data-name="Layer 1" viewBox="0 0 24 24">
  <path d="M15.038,9.618h0c-.849-.699-1.505-.331-1.747-.067l-.554,.604c-.379,.414-1.096,.414-1.475,0l-.554-.604c-.242-.264-.929-.624-1.747,.066-.245,.207-.631,.783-.619,1.518,.013,.87,.589,1.825,1.666,2.762,1.358,1.179,2.622,1.183,3.982,0,1.077-.937,1.653-1.892,1.666-2.762,.012-.735-.384-1.3-.619-1.518Z"/>
  <path d="M12.007,1h-.013C4.945,1.044,1.153,4.842,1.026,12.018c.131,7.144,3.923,10.941,10.974,10.982h9.974c.553,0,1-.448,1-1V11.983c-.122-7.037-4.017-10.938-10.967-10.983Zm3.297,14.406c-1.054,.917-2.165,1.381-3.303,1.382-1.14,0-2.251-.465-3.305-1.382-1.539-1.339-2.331-2.766-2.354-4.24-.021-1.344,.638-2.439,1.26-3.016,.681-.63,1.604-.972,2.461-.935,.729,.03,1.407,.312,1.937,.8,.529-.488,1.207-.771,1.937-.8,.87-.036,1.781,.304,2.461,.935,.623,.577,1.28,1.671,1.26,3.015-.022,1.475-.814,2.901-2.354,4.24Z"/>
</svg>
